<?xml version="1.0" encoding="UTF-8" standalone="no"?>
<svg
   xmlns:dc="http://purl.org/dc/elements/1.1/"
   xmlns:cc="http://creativecommons.org/ns#"
   xmlns:rdf="http://www.w3.org/1999/02/22-rdf-syntax-ns#"
   xmlns:svg="http://www.w3.org/2000/svg"
   xmlns="http://www.w3.org/2000/svg"
   id="svg8"
   version="1.1"
   viewBox="0 0 226.93175 119.44394"
   height="119.44394mm"
   width="226.93175mm">
  <defs
     id="defs2" />
  <metadata
     id="metadata5">
    <rdf:RDF>
      <cc:Work
         rdf:about="">
        <dc:format>image/svg+xml</dc:format>
        <dc:type
           rdf:resource="http://purl.org/dc/dcmitype/StillImage" />
        <dc:title></dc:title>
      </cc:Work>
    </rdf:RDF>
  </metadata>
  <g
     transform="translate(-39.461537,-35.55606)"
     style="display:none"
     id="layer6">
    <rect
       y="35.556"
       x="26.458321"
       height="119.444"
       width="353.07059"
       id="rect1113"
       style="opacity:1;vector-effect:none;fill:#ff0000;fill-opacity:1;stroke:#000000;stroke-width:0;stroke-linecap:round;stroke-linejoin:miter;stroke-miterlimit:4;stroke-dasharray:none;stroke-dashoffset:0;stroke-opacity:1;paint-order:stroke fill markers" />
  </g>
  <g
     style="display:none"
     transform="translate(-39.461537,-122.55606)"
     id="layer1">
    <flowRoot
       transform="matrix(0.26458333,0,0,0.4332779,9.0871639,0.0147679)"
       style="font-style:normal;font-variant:normal;font-weight:normal;font-stretch:normal;font-size:40px;line-height:1.25;font-family:'Bodoni 72';-inkscape-font-specification:'Bodoni 72, ';letter-spacing:0px;word-spacing:0px;fill:#000000;fill-opacity:1;stroke:none"
       id="flowRoot815"
       xml:space="preserve"><flowRegion
         style="fill:#000000;fill-opacity:1"
         id="flowRegion817"><rect
           style="fill:#000000;fill-opacity:1"
           y="217.91385"
           x="103.03556"
           height="478.81232"
           width="915.19818"
           id="rect819" /></flowRegion><flowPara
         style="font-style:normal;font-variant:normal;font-weight:normal;font-stretch:normal;font-size:334.66665649px;font-family:Impact;-inkscape-font-specification:Impact;letter-spacing:-15.21994781px;fill:#000000;fill-opacity:1"
         id="flowPara821">OSCAR</flowPara></flowRoot>  </g>
  <g
     id="g1341"
     transform="translate(-39.461537,-122.55606)"
     style="display:none">
    <flowRoot
       xml:space="preserve"
       id="flowRoot1339"
       style="font-style:normal;font-variant:normal;font-weight:normal;font-stretch:normal;font-size:40px;line-height:1.25;font-family:'Bodoni 72';-inkscape-font-specification:'Bodoni 72, ';letter-spacing:0px;word-spacing:0px;fill:#000000;fill-opacity:1;stroke:none"
       transform="matrix(-0.26458333,0,0,0.4332779,100.14431,0.0147679)"><flowRegion
         id="flowRegion1335"
         style="fill:#000000;fill-opacity:1"><rect
           id="rect1333"
           width="915.19818"
           height="478.81232"
           x="103.03556"
           y="217.91385"
           style="fill:#000000;fill-opacity:1" /></flowRegion><flowPara
         id="flowPara1337"
         style="font-style:normal;font-variant:normal;font-weight:normal;font-stretch:normal;font-size:334.66665649px;font-family:Impact;-inkscape-font-specification:Impact;letter-spacing:-15.21994781px;fill:#000000;fill-opacity:1">L</flowPara></flowRoot>  </g>
  <g
     transform="translate(-39.461537,-35.55606)"
     id="g1120"
     style="display:none">
    <path
       id="circle1118"
       transform="scale(0.26458333)"
       d="m 952.84375,449.04297 c -34.14689,1.50265 -61.06356,29.61304 -61.08398,63.79297 1.8e-4,35.28682 28.60575,63.89239 63.89257,63.89258 34.63097,-0.0193 62.94226,-27.6247 63.83596,-62.24414 -0.8342,7.65069 -7.2943,13.44663 -14.9903,13.44921 -8.33053,-1.6e-4 -15.0838,-6.7534 -15.08394,-15.08398 4e-5,-2.40188 0.57548,-4.6641 1.57422,-6.67969 l -0.0469,-0.0195 c -6.49483,12.90858 -19.85308,21.77008 -35.28907,21.76953 -21.80865,-3e-4 -39.48798,-17.67963 -39.48828,-39.48828 6e-5,-20.71899 16.01319,-37.91478 36.67969,-39.38867 z"
       style="opacity:1;vector-effect:none;fill:#000000;fill-opacity:1;stroke:#000000;stroke-width:0;stroke-linecap:round;stroke-linejoin:miter;stroke-miterlimit:4;stroke-dasharray:none;stroke-dashoffset:0;stroke-opacity:1;paint-order:stroke fill markers" />
  </g>
  <g
     transform="translate(-39.461537,-35.55606)"
     style="display:none"
     id="layer9">
    <path
       id="rect1237"
       transform="scale(0.26458333)"
       d="m 949.21094,511.57031 v 19.44531 h 26.38867 v -8.47851 a 12.983383,12.983383 0 0 1 -6.94336,2.01562 12.983383,12.983383 0 0 1 -12.98437,-12.98242 z"
       style="opacity:1;vector-effect:none;fill:#000000;fill-opacity:1;stroke:#000000;stroke-width:0.00440289;stroke-linecap:round;stroke-linejoin:miter;stroke-miterlimit:4;stroke-dasharray:none;stroke-dashoffset:0;stroke-opacity:1;paint-order:stroke fill markers" />
  </g>
  <g
     transform="translate(-39.461537,-35.55606)"
     style="display:none"
     id="layer8">
    <circle
       style="display:inline;opacity:1;vector-effect:none;fill:#000000;fill-opacity:1;stroke:none;stroke-width:0.1;stroke-linecap:round;stroke-linejoin:miter;stroke-miterlimit:4;stroke-dasharray:none;stroke-dashoffset:0;stroke-opacity:1;paint-order:stroke fill markers"
       id="circle1118-0-2-5"
       cx="265.77365"
       cy="135.69157"
       r="3.9910383" />
  </g>
  <g
     transform="translate(-39.461537,-35.55606)"
     style="display:none"
     id="layer10">
    <circle
       r="78.540436"
       cy="95.278038"
       cx="190.1208"
       id="path1286"
       style="opacity:1;vector-effect:none;fill:none;fill-opacity:1;stroke:#000000;stroke-width:9.09411907;stroke-linecap:round;stroke-linejoin:miter;stroke-miterlimit:4;stroke-dasharray:none;stroke-dashoffset:0;stroke-opacity:1;paint-order:stroke fill markers" />
  </g>
  <g
     transform="translate(-39.461537,-35.55606)"
     style="display:none"
     id="layer11">
    <rect
       y="35.556"
       x="26.458321"
       height="119.444"
       width="353.07059"
       id="rect1113-4"
       style="display:inline;opacity:1;vector-effect:none;fill:#ffd42a;fill-opacity:1;stroke:#000000;stroke-width:0;stroke-linecap:round;stroke-linejoin:miter;stroke-miterlimit:4;stroke-dasharray:none;stroke-dashoffset:0;stroke-opacity:1;paint-order:stroke fill markers" />
  </g>
  <g
     style="display:inline"
     transform="translate(-39.461537,-122.55606)"
     id="g1268">
    <g
       style="fill:#1a1a1a;fill-opacity:1"
       id="g1309">
      <path
         d="m 81.57335,192.08419 q 0,17.27583 -0.518832,24.49769 -0.475597,7.15106 -3.11299,13.09848 -2.594155,5.94741 -7.047457,9.13353 Q 66.440768,242 60.517443,242 q -5.620673,0 -10.117211,-2.97371 -4.453303,-3.04451 -7.177167,-9.06273 -2.723864,-6.01821 -3.242696,-13.09847 -0.518832,-7.08026 -0.518832,-24.7809 v -19.61231 q 0,-17.27583 0.475596,-24.42689 0.518829,-7.22186 3.112987,-13.16928 2.637393,-5.94741 7.090696,-9.13353 4.453302,-3.18612 10.376627,-3.18612 5.620673,0 10.073976,3.04451 4.496538,2.97371 7.220402,8.99193 2.723865,6.01822 3.242697,13.09848 0.518832,7.08025 0.518832,24.7809 z M 63.371014,154.41722 q 0,-8.00069 -0.562065,-10.19557 -0.518832,-2.26568 -2.205035,-2.26568 -1.426787,0 -2.205032,1.84087 -0.735012,1.77006 -0.735012,10.62038 v 53.52674 q 0,9.98317 0.475596,12.31965 0.518832,2.33649 2.334742,2.33649 1.859145,0 2.377977,-2.6905 0.518829,-2.6905 0.518829,-12.81526 z"
         style="font-style:normal;font-variant:normal;font-weight:normal;font-stretch:normal;font-size:334.66665649px;line-height:1.25;font-family:Impact;-inkscape-font-specification:Impact;letter-spacing:-15.21994781px;word-spacing:0px;fill:#1a1a1a;fill-opacity:1;stroke:none;stroke-width:0.33858249"
         id="path1258" />
      <path
         d="m 122.94415,159.65661 h -16.90526 v -8.49631 q 0,-5.94741 -0.64854,-7.57587 -0.64854,-1.62846 -2.1618,-1.62846 -1.64296,0 -2.50768,2.19488 -0.821484,2.19488 -0.821484,6.65544 0,5.73501 0.951194,8.63792 0.90795,2.9029 5.14508,7.00945 12.1493,11.82403 15.30552,19.3999 3.15622,7.57588 3.15622,24.42689 0,12.24884 -1.77267,18.05466 -1.72944,5.80581 -6.74481,9.77075 Q 110.92455,242 104.26622,242 q -7.306879,0 -12.495191,-4.53136 -5.145077,-4.53136 -6.744809,-11.54082 -1.599729,-7.00945 -1.599729,-19.89553 v -7.50507 h 16.905259 v 13.94811 q 0,6.44304 0.69177,8.2839 0.73501,1.84087 2.55092,1.84087 1.81591,0 2.68063,-2.33649 0.90796,-2.33648 0.90796,-6.93865 0,-10.12476 -1.68621,-13.24008 -1.72943,-3.11531 -8.517479,-10.40798 -6.788041,-7.36346 -8.993076,-10.69119 -2.205032,-3.32772 -3.675055,-9.20433 -1.426786,-5.87661 -1.426786,-15.01015 0,-13.16927 2.03209,-19.25829 2.075325,-6.08903 6.658334,-9.48755 4.583012,-3.46933 11.068402,-3.46933 7.0907,0 12.06283,3.75254 5.01537,3.75254 6.6151,9.48754 1.64297,5.66421 1.64297,19.32911 z"
         style="font-style:normal;font-variant:normal;font-weight:normal;font-stretch:normal;font-size:334.66665649px;line-height:1.25;font-family:Impact;-inkscape-font-specification:Impact;letter-spacing:-15.21994781px;word-spacing:0px;fill:#1a1a1a;fill-opacity:1;stroke:none;stroke-width:0.33858249"
         id="path1260" />
      <path
         d="m 168.68178,174.94997 h -18.20234 v -19.96633 q 0,-8.70871 -0.6053,-10.83279 -0.56207,-2.19488 -2.55092,-2.19488 -2.24827,0 -2.85358,2.61969 -0.6053,2.6197 -0.6053,11.32841 v 53.24354 q 0,8.3547 0.6053,10.90359 0.60531,2.5489 2.72387,2.5489 2.03209,0 2.63739,-2.5489 0.64854,-2.54889 0.64854,-11.96563 v -14.37292 h 18.20234 v 4.46056 q 0,17.77145 -1.5565,25.20572 -1.51326,7.43427 -6.78804,13.02767 Q 155.10569,242 147.40969,242 q -7.99865,0 -13.18696,-4.74377 -5.18832,-4.74377 -6.87452,-13.09847 -1.6862,-8.42551 -1.6862,-25.27652 v -33.48962 q 0,-12.39045 0.51883,-18.55027 0.51883,-6.23063 3.06975,-11.96564 2.59416,-5.735 7.13393,-8.99192 4.58301,-3.32773 10.50634,-3.32773 8.04188,0 13.27343,5.09779 5.23155,5.09779 6.87452,12.74446 1.64297,7.57588 1.64297,23.64806 z"
         style="font-style:normal;font-variant:normal;font-weight:normal;font-stretch:normal;font-size:334.66665649px;line-height:1.25;font-family:Impact;-inkscape-font-specification:Impact;letter-spacing:-15.21994781px;word-spacing:0px;fill:#1a1a1a;fill-opacity:1;stroke:none;stroke-width:0.33858249"
         id="path1262" />
      <path
         d="m 202.70246,124.96335 10.41987,114.62936 h -18.6347 l -0.90795,-20.60354 h -6.52863 l -1.0809,20.60354 h -18.85087 l 9.25249,-114.62936 z m -9.64161,73.70548 q -1.38355,-19.47071 -2.7671,-48.07495 -2.7671,32.8524 -3.45888,48.07495 z"
         style="font-style:normal;font-variant:normal;font-weight:normal;font-stretch:normal;font-size:334.66665649px;line-height:1.25;font-family:Impact;-inkscape-font-specification:Impact;letter-spacing:-15.21994781px;word-spacing:0px;fill:#1a1a1a;fill-opacity:1;stroke:none;stroke-width:0.33858249"
         id="path1264" />
      <path
         id="path1266"
         transform="matrix(0.26458333,0,0,0.26458333,0,87)"
         d="m 802.04688,143.48438 v 433.24414 h 68.79687 V 381.38086 c 9.47787,0 15.30556,2.76451 17.48437,8.29492 2.28778,5.53041 3.43165,19.89197 3.43165,43.08399 l -0.10352,17.12695 c 0,32.46886 2.01409,57.53369 6.04492,75.19531 4.03083,17.66162 12.52822,32.20153 25.49219,43.61914 13.07289,11.41761 28.81554,17.12481 47.22656,17.125 l 35.67738,6.1e-4 0.7435,-36.3542 c -27.68995,-7.63714 -39.34666,-14.44322 -48.67674,-43.9257 -1.30512,-3.47305 -2.20185,-10.19964 -2.50976,-20.17383 v -22.91016 c 0,-34.96645 -0.59854,-56.28582 -1.79688,-63.95703 -1.08943,-7.8496 -3.97766,-16.41263 -8.66211,-25.68945 -4.68447,-9.2768 -13.83551,-16.68053 -27.45312,-22.21094 15.03385,-2.31919 25.11219,-9.27703 30.23242,-20.87305 5.12023,-11.59599 7.67969,-34.2511 7.67969,-67.96875 0,-36.92883 -3.65017,-63.77919 -10.94922,-80.54883 -7.1901,-16.948 -16.55773,-27.47296 -28.10547,-31.57617 -11.43879,-4.1032 -33.39104,-6.1543 -65.85547,-6.15429 z m 68.79687,74.125 c 7.95271,-10e-6 13.40039,2.14024 16.3418,6.42187 3.05035,4.2816 4.57422,13.29055 4.57422,27.02734 V 274.875 c 0,19.08883 -1.57898,30.41833 -4.73829,33.98633 -3.05033,3.3896 -8.4429,5.08398 -16.17773,5.08398 z"
         style="font-style:normal;font-variant:normal;font-weight:normal;font-stretch:normal;font-size:334.66665649px;line-height:1.25;font-family:Impact;-inkscape-font-specification:Impact;letter-spacing:-15.21994781px;word-spacing:0px;display:inline;fill:#1a1a1a;fill-opacity:1;stroke:none;stroke-width:1.2796818" />
    </g>
  </g>
  <g
     transform="translate(-39.461537,-35.55606)"
     style="display:none"
     id="layer7" />
  <g
     id="g1048"
     transform="translate(-39.461537,-122.55606)"
     style="display:none">
    <path
       d="m 81.57335,192.08419 q 0,17.27583 -0.518832,24.49769 -0.475597,7.15106 -3.11299,13.09848 -2.594155,5.94741 -7.047457,9.13353 Q 66.440768,242 60.517443,242 q -5.620673,0 -10.117211,-2.97371 -4.453303,-3.04451 -7.177167,-9.06273 -2.723864,-6.01821 -3.242696,-13.09847 -0.518832,-7.08026 -0.518832,-24.7809 v -19.61231 q 0,-17.27583 0.475596,-24.42689 0.518829,-7.22186 3.112987,-13.16928 2.637393,-5.94741 7.090696,-9.13353 4.453302,-3.18612 10.376627,-3.18612 5.620673,0 10.073976,3.04451 4.496538,2.97371 7.220402,8.99193 2.723865,6.01822 3.242697,13.09848 0.518832,7.08025 0.518832,24.7809 z M 63.371014,154.41722 q 0,-8.00069 -0.562065,-10.19557 -0.518832,-2.26568 -2.205035,-2.26568 -1.426787,0 -2.205032,1.84087 -0.735012,1.77006 -0.735012,10.62038 v 53.52674 q 0,9.98317 0.475596,12.31965 0.518832,2.33649 2.334742,2.33649 1.859145,0 2.377977,-2.6905 0.518829,-2.6905 0.518829,-12.81526 z"
       style="font-style:normal;font-variant:normal;font-weight:normal;font-stretch:normal;font-size:334.66665649px;line-height:1.25;font-family:Impact;-inkscape-font-specification:Impact;letter-spacing:-15.21994781px;word-spacing:0px;fill:#000000;fill-opacity:1;stroke:none;stroke-width:0.33858249"
       id="path1050" />
    <path
       d="m 122.94415,159.65661 h -16.90526 v -8.49631 q 0,-5.94741 -0.64854,-7.57587 -0.64854,-1.62846 -2.1618,-1.62846 -1.64296,0 -2.50768,2.19488 -0.821484,2.19488 -0.821484,6.65544 0,5.73501 0.951194,8.63792 0.90795,2.9029 5.14508,7.00945 12.1493,11.82403 15.30552,19.3999 3.15622,7.57588 3.15622,24.42689 0,12.24884 -1.77267,18.05466 -1.72944,5.80581 -6.74481,9.77075 Q 110.92455,242 104.26622,242 q -7.306879,0 -12.495191,-4.53136 -5.145077,-4.53136 -6.744809,-11.54082 -1.599729,-7.00945 -1.599729,-19.89553 v -7.50507 h 16.905259 v 13.94811 q 0,6.44304 0.69177,8.2839 0.73501,1.84087 2.55092,1.84087 1.81591,0 2.68063,-2.33649 0.90796,-2.33648 0.90796,-6.93865 0,-10.12476 -1.68621,-13.24008 -1.72943,-3.11531 -8.517479,-10.40798 -6.788041,-7.36346 -8.993076,-10.69119 -2.205032,-3.32772 -3.675055,-9.20433 -1.426786,-5.87661 -1.426786,-15.01015 0,-13.16927 2.03209,-19.25829 2.075325,-6.08903 6.658334,-9.48755 4.583012,-3.46933 11.068402,-3.46933 7.0907,0 12.06283,3.75254 5.01537,3.75254 6.6151,9.48754 1.64297,5.66421 1.64297,19.32911 z"
       style="font-style:normal;font-variant:normal;font-weight:normal;font-stretch:normal;font-size:334.66665649px;line-height:1.25;font-family:Impact;-inkscape-font-specification:Impact;letter-spacing:-15.21994781px;word-spacing:0px;fill:#000000;fill-opacity:1;stroke:none;stroke-width:0.33858249"
       id="path1052" />
    <path
       d="m 168.68178,174.94997 h -18.20234 v -19.96633 q 0,-8.70871 -0.6053,-10.83279 -0.56207,-2.19488 -2.55092,-2.19488 -2.24827,0 -2.85358,2.61969 -0.6053,2.6197 -0.6053,11.32841 v 53.24354 q 0,8.3547 0.6053,10.90359 0.60531,2.5489 2.72387,2.5489 2.03209,0 2.63739,-2.5489 0.64854,-2.54889 0.64854,-11.96563 v -14.37292 h 18.20234 v 4.46056 q 0,17.77145 -1.5565,25.20572 -1.51326,7.43427 -6.78804,13.02767 Q 155.10569,242 147.40969,242 q -7.99865,0 -13.18696,-4.74377 -5.18832,-4.74377 -6.87452,-13.09847 -1.6862,-8.42551 -1.6862,-25.27652 v -33.48962 q 0,-12.39045 0.51883,-18.55027 0.51883,-6.23063 3.06975,-11.96564 2.59416,-5.735 7.13393,-8.99192 4.58301,-3.32773 10.50634,-3.32773 8.04188,0 13.27343,5.09779 5.23155,5.09779 6.87452,12.74446 1.64297,7.57588 1.64297,23.64806 z"
       style="font-style:normal;font-variant:normal;font-weight:normal;font-stretch:normal;font-size:334.66665649px;line-height:1.25;font-family:Impact;-inkscape-font-specification:Impact;letter-spacing:-15.21994781px;word-spacing:0px;fill:#000000;fill-opacity:1;stroke:none;stroke-width:0.33858249"
       id="path1054" />
    <path
       d="m 202.70246,124.96335 10.41987,114.62936 h -18.6347 l -0.90795,-20.60354 h -6.52863 l -1.0809,20.60354 h -18.85087 l 9.25249,-114.62936 z m -9.64161,73.70548 q -1.38355,-19.47071 -2.7671,-48.07495 -2.7671,32.8524 -3.45888,48.07495 z"
       style="font-style:normal;font-variant:normal;font-weight:normal;font-stretch:normal;font-size:334.66665649px;line-height:1.25;font-family:Impact;-inkscape-font-specification:Impact;letter-spacing:-15.21994781px;word-spacing:0px;fill:#000000;fill-opacity:1;stroke:none;stroke-width:0.33858249"
       id="path1056" />
    <path
       id="path1058"
       transform="matrix(0.26458333,0,0,0.26458333,0,87)"
       d="m 802.04688,143.48438 v 433.24414 h 68.79687 V 381.38086 c 9.47787,0 15.30556,2.76451 17.48437,8.29492 2.28778,5.53041 3.43165,19.89197 3.43165,43.08399 l -0.10352,17.12695 c 0,32.46886 2.01409,57.53369 6.04492,75.19531 4.03083,17.66162 12.52822,32.20153 25.49219,43.61914 13.07289,11.41761 28.81554,17.125 47.22656,17.125 16.77691,0 31.48398,-4.9048 44.12108,-14.71679 12.6372,-9.99039 21.1346,-22.30088 25.4922,-36.92969 10.8838,-48.98366 -5.893,-106.76397 -58.66601,-56.73047 0,11.59601 -1.14386,20.33743 -3.43164,26.22461 -2.17883,5.88722 -5.55533,8.83008 -10.13086,8.83008 -4.57554,0 -7.78862,-2.31861 -9.64063,-6.95703 -1.30512,-3.47305 -2.20185,-10.19964 -2.50976,-20.17383 v -22.91016 c 0,-34.96645 -0.59854,-56.28582 -1.79688,-63.95703 -1.08943,-7.8496 -3.97766,-16.41263 -8.66211,-25.68945 -4.68447,-9.2768 -13.83551,-16.68053 -27.45312,-22.21094 15.03385,-2.31919 25.11219,-9.27703 30.23242,-20.87305 5.12023,-11.59599 7.67969,-34.2511 7.67969,-67.96875 0,-36.92883 -3.65017,-63.77919 -10.94922,-80.54883 -7.1901,-16.948 -16.55773,-27.47296 -28.10547,-31.57617 -11.43879,-4.1032 -33.39104,-6.1543 -65.85547,-6.15429 z m 68.79687,74.125 c 7.95271,-10e-6 13.40039,2.14024 16.3418,6.42187 3.05035,4.2816 4.57422,13.29055 4.57422,27.02734 V 274.875 c 0,19.08883 -1.57898,30.41833 -4.73829,33.98633 -3.05033,3.3896 -8.4429,5.08398 -16.17773,5.08398 z"
       style="font-style:normal;font-variant:normal;font-weight:normal;font-stretch:normal;font-size:334.66665649px;line-height:1.25;font-family:Impact;-inkscape-font-specification:Impact;letter-spacing:-15.21994781px;word-spacing:0px;display:inline;fill:#000000;fill-opacity:1;stroke:none;stroke-width:1.2796818" />
  </g>
  <g
     style="display:none"
     id="layer12">
    <rect
       y="56.582142"
       x="-14.967093"
       height="8.231904"
       width="350.22998"
       id="rect1331"
       style="opacity:1;vector-effect:none;fill:#ff0000;fill-opacity:1;stroke:none;stroke-width:5.80958462;stroke-linecap:round;stroke-linejoin:miter;stroke-miterlimit:4;stroke-dasharray:none;stroke-dashoffset:0;stroke-opacity:1;paint-order:stroke fill markers" />
  </g>
</svg>
