<?xml version="1.0" encoding="utf-8"?>
<svg id="master-artboard" viewBox="0 0 841.9 595.3" version="1.1" xmlns="http://www.w3.org/2000/svg" x="0px" y="0px" width="841.9000244140625px" height="595.2999877929688px" enable-background="new 0 0 841.9 595.3">
<linearGradient id="SVGID_1_" gradientUnits="userSpaceOnUse" x1="420.945" y1="353.9969" x2="420.945" y2="18.1218">
		<stop offset="0" style="stop-color:#FFFFFF"/>
		<stop offset="1" style="stop-color:#42A891"/>
	</linearGradient><path fill="#6FA241" d="M254.3,379.7c0,0-1.3-30,8.7-39.3c10-9.3,17.5,7.3,17.5,7.3s6.5-31.2,17.1-35.9&#10;&#9;&#9;&#9;&#9;c10.7-4.7,25.4,18.6,25.4,18.6s2-15.8,8-19.2c6-3.4,13.3,6.7,13.3,6.7s8.6-15.1,18-20.9c9.3-5.8,25.3,24.9,25.3,24.9&#10;&#9;&#9;&#9;&#9;s17.7-34.9,28.5-37.5c10.9-2.5,32.2,38.8,32.2,38.8s-2.7-21.3,10-22.3c12.7-1,16,21,16,21s9.1-13.3,18.9-13.3&#10;&#9;&#9;&#9;&#9;s21.3,23.5,21.3,23.5s8.9-11.2,16.5-11.5c7.6-0.3,7.1,19.3,7.1,19.3s9.1-10.9,20.4-7.8c11.2,3.1,16.9,27.1,16.9,27.1&#10;&#9;&#9;&#9;&#9;s2.7-8.6,13.5-8.3c10.8,0.3,12.8,30.3,12.8,30.3l-361.3,3.8C240.3,384.8,242.3,366.3,254.3,379.7z" transform="matrix(1, 0, 0, 1, 0, 0)"/><path fill="#91BC3E" d="M265.7,345.7c6-2,16,7.2,16,7.2s10-31.8,17.7-32.8c7.7-1.1,24.7,16.3,24.7,16.3s3.1-17.7,7.7-18.7&#10;&#9;&#9;&#9;&#9;s13.6,4,13.6,4s13.3-16.7,20.3-16.5s21.2,20.9,21.2,20.9s23.3-35,31.5-33.5c8.3,1.5,30.3,33.5,30.3,33.5s1.8-17.8,10.6-19.1&#10;&#9;&#9;&#9;&#9;c8.8-1.3,15,19.7,15,19.7s13.6-11.7,21.7-11.3s18.3,19.1,18.3,19.1s12.7-8.8,16.3-8.1c3.7,0.7,5.5,17.8,5.5,17.8&#10;&#9;&#9;&#9;&#9;s13.8-7.5,22.2-6.4s17,21.3,17,21.3s-5.7-23.9-16.9-27.1s-20.4,7.8-20.4,7.8s0.5-19.6-7.1-19.3c-7.6,0.3-16.5,11.5-16.5,11.5&#10;&#9;&#9;&#9;&#9;s-11.5-23.5-21.3-23.5s-18.9,13.3-18.9,13.3s-3.3-22-16-21c-12.7,1-10,22.3-10,22.3s-21.3-41.3-32.2-38.8&#10;&#9;&#9;&#9;&#9;c-10.9,2.5-28.5,37.5-28.5,37.5s-15.9-30.7-25.3-24.9c-9.3,5.8-18,20.9-18,20.9s-7.3-10.1-13.3-6.7c-6,3.4-8,19.2-8,19.2&#10;&#9;&#9;&#9;&#9;s-14.7-23.3-25.4-18.6c-10.7,4.7-17.1,35.9-17.1,35.9s-7.5-16.7-17.5-7.3c-10,9.3-8.7,39.3-8.7,39.3S259.7,347.7,265.7,345.7z" transform="matrix(1, 0, 0, 1, 0, 0)"/><path fill="#B4E1E0" d="M430.6,531.1c-27.1,0-66.7-2.8-103.4-7.4c-63.7-7.9-71.1-14.3-74.7-17.4c-4.8-4.2-6.7-10-5.1-15.8&#10;&#9;&#9;&#9;c1.7-5.9,6.1-11,20.5-17.4c-15.1-1.2-31.4-2.7-47.6-4.2c-35.5-3.4-63.9-6.9-84.7-10.2c-12.9-2.1-22.8-4.2-30.1-6.3&#10;&#9;&#9;&#9;c-5.9-1.7-19.6-5.7-22-16.8c-1-4.9,0.4-9.8,4-14c4.3-5,14.4-16.6,122.2-33.5c62.7-9.8,134.8-17.4,193-20.4&#10;&#9;&#9;&#9;c11-0.6,22.9-0.8,35.3-0.8c57.6,0,130.2,6.4,194.2,17.1c104.8,17.5,115.2,32.9,118.6,38c3.7,5.4,3.8,11.9,0.3,17.8&#10;&#9;&#9;&#9;c-4,6.8-13.1,15.1-52.7,29.4c-23.1,8.3-54.1,17.8-89.6,27.3c-67.3,18.1-137.1,32.7-162.2,34.1C441.9,531,436.5,531.1,430.6,531.1z&#10;&#9;&#9;&#9;" transform="matrix(1, 0, 0, 1, 0, 0)"/><path fill="#FFFFFF" d="M428.5,521.2c-22.5,0-55.4-2.8-85.9-7.3c-52.4-7.8-58.5-14.1-60.9-16.5c-3-3.1-4-7.1-2.9-11&#10;&#9;&#9;&#9;c1.8-6,7.9-11.8,31.4-21.2c-16.9-1.6-36.8-3.5-56.8-5.8c-29.5-3.4-53.2-6.8-70.4-10.2c-28.9-5.6-39.1-10.6-40.8-19.5&#10;&#9;&#9;&#9;c-0.5-2.5-0.3-6.4,3.2-10.5c3.2-3.7,12.8-15,100.6-31.3c51.8-9.6,111.3-17.1,159.2-20c9.2-0.6,19-0.8,29.3-0.8&#10;&#9;&#9;&#9;c47.9,0,108.3,6.4,161.5,17c24.6,4.9,46.2,10.5,62.4,16c25.4,8.7,31.7,15.4,34.4,20.2c1.4,2.4,3.1,7.4-0.6,13.6&#10;&#9;&#9;&#9;c-3.2,5.3-10.9,13.1-43.1,26.8c-19.3,8.3-45,17.6-74.2,26.9c-55.4,17.7-112.7,32.1-133.3,33.4C437.9,521,433.4,521.2,428.5,521.2z&#10;&#9;&#9;&#9;" transform="matrix(1, 0, 0, 1, 0, 0)"/><g transform="matrix(1, 0, 0, 1, 0, 0)">
				<path fill="#CCB18F" d="M152.2,415l0,7.7c0,0,65.1,24.7,84.5,26c19.3,1.3,107.5,4,107.5,4l-55,30.3l4.8,11c0,0,98.7,22.7,138,22&#10;&#9;&#9;&#9;&#9;&#9;s165.4-36.1,252.7-88.7l-0.5-16.3L152.2,415z"/>
				<path fill="#FFEABD" d="M406.1,359.9C511.2,353,672.2,388,684.2,411s-200.1,91-243.1,94s-142.9-12-151.9-22s65.8-34,65.8-34&#10;&#9;&#9;&#9;&#9;&#9;s-199.8-16-202.8-34S300.9,366.8,406.1,359.9z"/>
				<path fill="#F0D5AC" d="M684.2,411c-3.6-6.9-20.6-14.9-45.5-22.5c10,10.1,16.1,22.1,4.3,31.5c-25.6,20.4-266,59-270,48&#10;&#9;&#9;&#9;&#9;&#9;s13.8-44.9,13.8-44.9S196,417,197,408.5c0.4-3.6,4.6-10.7,9.3-17.7C173,399.3,151,408,152.2,415c3,18,202.8,34,202.8,34&#10;&#9;&#9;&#9;&#9;&#9;s-74.8,24-65.8,34s109,25,151.9,22S696.2,434,684.2,411z"/>
				<path fill="#F0D5AC" d="M609.3,398.7c0,0-15.7-2.3-19.3,0c-3.7,2.3,3.7,9.3,9.7,10.3S631,401.7,609.3,398.7z"/>
				<path fill="#F0D5AC" d="M567.7,414c0,0-0.7,6,2,8.3c2.7,2.3,9.3-0.7,9-4.2C578.3,414.7,567.6,409.9,567.7,414z"/>
			</g><g transform="matrix(1, 0, 0, 1, 0, 0)">
					<path fill="#6A543F" d="M371,131.5l26.6,272.9c0,0,11.4,5.3,22.8,4.6c11.4-0.8,16.7-6.9,16.7-6.9l-53.5-274.4L371,131.5z"/>
					<g>
						<path fill="#436D33" d="M331.6,74c-12.4-6-28.8,30.8-28.8,30.8s7.6,0,15,0.7l9.3-15.5l-5.2,15.9c2.8,0.3,5.3,0.8,7.2,1.3&#10;&#9;&#9;&#9;&#9;&#9;&#9;&#9;c1.7,0.5,5,2.2,9,4.5l5.6-6l-2.2,8c13.7,8,32.6,20.4,32.6,20.4l-1.2-13.6C373.1,120.4,344,80,331.6,74z"/>
						<path fill="#345528" d="M385.6,91.4l11,4.3c0.5-0.6,0.9-1.2,1.3-1.6c1.9-2.2,7.4-8.6,13.6-16L398,76.1l17.2-2.3&#10;&#9;&#9;&#9;&#9;&#9;&#9;&#9;c10.4-12.4,21.5-25.7,21.5-25.7s-35.1,1.5-50,15.7c-14.9,14.2-15.1,57-15.1,57l2.6,13c0,0,12.9-23.6,20.3-34.8L385.6,91.4z"/>
						<path fill="#345528" d="M295.9,132.3c-21.6,18.7-13.6,55.4-13.6,55.4l13.6-8l4.8-24.2L304,175l26.8-15.6l-4-20.6l10.4,16.8&#10;&#9;&#9;&#9;&#9;&#9;&#9;&#9;l37-21.6l-1.2-13.6C373.1,120.4,317.5,113.6,295.9,132.3z"/>
						<path fill="#436D33" d="M428.2,76.3l22.5,15.4c13-2.2,28.4-4.1,28.4-4.1s-30.7-22.3-52.8-19.5c-22.1,2.8-57.5,53.9-57.5,53.9&#10;&#9;&#9;&#9;&#9;&#9;&#9;&#9;l5.5,12.1c0,0,17.5-11.7,33.8-22.3l-7.3-14.1l12.5,10.8c9.9-6.4,18.6-11.7,21.5-13c1.6-0.7,4.3-1.4,7.7-2.1L428.2,76.3z"/>
						<path fill="#345528" d="M518.9,156.9c0,0-30.2-34.5-52.1-45.3c-21.9-10.8-93.8,8.8-93.8,8.8l1.2,13.6l41,6.5V118l7.7,23.7&#10;&#9;&#9;&#9;&#9;&#9;&#9;&#9;l53.6,8.5l-7.6-22.1l14.1,23.1L518.9,156.9z"/>
						<path fill="#436D33" d="M373.1,120.4l1.2,13.6c0,0,22.6,18.2,39.4,32.9l9.7-10.4l-6.2,13.4c5,4.4,9.2,8.3,11.8,11&#10;&#9;&#9;&#9;&#9;&#9;&#9;&#9;c4.5,4.8,12.3,14.1,20,23.5l6.2-24l-0.9,30.5c9.9,12.2,18.5,23.2,18.5,23.2s14.1-42.9-11.4-72.9&#10;&#9;&#9;&#9;&#9;&#9;&#9;&#9;C432.2,127,373.1,120.4,373.1,120.4z"/>
						<path fill="#436D33" d="M333.5,139.6c-13.3,10.5-40.4,49.1-43.9,63.8c-3.6,14.7,22.1,58.2,22.1,58.2s2.7-10.1,6.3-23.3&#10;&#9;&#9;&#9;&#9;&#9;&#9;&#9;l-16.1-26.9l18.7,17.5c1.3-4.7,2.6-9.7,4-14.5l-15-11.2l16.3,6.5c4.4-15.7,8.4-29.3,9.4-31c0.6-0.9,2.7-3.6,5.8-7.1l-8.4-7.9&#10;&#9;&#9;&#9;&#9;&#9;&#9;&#9;l11.6,4.2c11.6-13.4,30.1-33.9,30.1-33.9l-1.2-13.6C373.1,120.4,346.8,129.2,333.5,139.6z"/>
					</g>
					<g>
						<g>
							<path d="M 374.29998779296875 165.3000030517578 L 375.20001220703125 174.1999969482422 L 392.6000061035156 173.39999389648438 L 391.29998779296875 166.6999969482422 Z" fill="#987555"/>
							<path d="M 398.6000061035156 204.10000610351562 L 378.29998779296875 206.60000610351562 L 379.6000061035156 219.8000030517578 L 400.70001220703125 214.8000030517578 Z" fill="#987555"/>
							<path d="M 410.1000061035156 262.79998779296875 L 407.1000061035156 247.89999389648438 L 382.5 249.3000030517578 L 383.6000061035156 260.29998779296875 Z" fill="#987555"/>
							<path d="M 415.79998779296875 292.5 L 386.8999938964844 294.3999938964844 L 387.8999938964844 305.1000061035156 L 418.29998779296875 305.1000061035156 Z" fill="#987555"/>
							<path d="M 425.8999938964844 344.1000061035156 L 391.8999938964844 345.8999938964844 L 393.5 361.70001220703125 L 428.20001220703125 355.70001220703125 Z" fill="#987555"/>
						</g>
					</g>
				</g><path fill="#6A543F" d="M586.9,158.3c0,0-24.8,96.2-34.2,120.2c-9.3,23.9-104,118.6-104,118.6s7.3,7.3,15.3,11.3s24,0,24,0&#10;&#9;&#9;&#9;&#9;&#9;&#9;s74.3-95.6,80.9-116.1c6.7-20.5,28.5-134,28.5-134H586.9z" transform="matrix(1, 0, 0, 1, 0, 0)"/><path fill="#628339" d="M638.9,104.6c12.4-6,28.8,30.8,28.8,30.8s-7.6,0-15,0.7l-9.3-15.5l5.2,15.9c-2.8,0.3-5.3,0.8-7.2,1.3&#10;&#9;&#9;&#9;&#9;&#9;&#9;&#9;c-1.7,0.5-5,2.2-9,4.5l-5.6-6l2.2,8c-13.7,8-32.6,20.4-32.6,20.4l1.2-13.6C597.5,151,626.5,110.6,638.9,104.6z" transform="matrix(1, 0, 0, 1, 0, 0)"/><path fill="#417035" d="M584.9,122l-11,4.3c-0.5-0.6-0.9-1.2-1.3-1.6c-1.9-2.2-7.4-8.6-13.6-16l13.6-1.9l-17.2-2.3&#10;&#9;&#9;&#9;&#9;&#9;&#9;&#9;c-10.4-12.4-21.5-25.7-21.5-25.7s35.1,1.5,50,15.7c14.9,14.2,15.1,57,15.1,57l-2.6,13c0,0-12.9-23.6-20.3-34.8L584.9,122z" transform="matrix(1, 0, 0, 1, 0, 0)"/><path fill="#417035" d="M674.7,162.9c21.6,18.7,13.6,55.4,13.6,55.4l-13.6-8l-4.8-24.2l-3.3,19.5L639.8,190l4-20.6l-10.4,16.8&#10;&#9;&#9;&#9;&#9;&#9;&#9;&#9;l-37-21.6l1.2-13.6C597.5,151,653,144.2,674.7,162.9z" transform="matrix(1, 0, 0, 1, 0, 0)"/><path fill="#628339" d="M542.4,106.9l-22.5,15.4c-13-2.2-28.4-4.1-28.4-4.1s30.7-22.3,52.8-19.5c22.1,2.8,57.5,53.9,57.5,53.9&#10;&#9;&#9;&#9;&#9;&#9;&#9;&#9;l-5.5,12.1c0,0-17.5-11.7-33.8-22.3l7.3-14.1L557.4,139c-9.9-6.4-18.6-11.7-21.5-13c-1.6-0.7-4.3-1.4-7.7-2.1L542.4,106.9z" transform="matrix(1, 0, 0, 1, 0, 0)"/><path fill="#417035" d="M451.6,187.5c0,0,30.2-34.5,52.1-45.3c21.9-10.8,93.8,8.8,93.8,8.8l-1.2,13.6l-41,6.5v-22.4l-7.7,23.7&#10;&#9;&#9;&#9;&#9;&#9;&#9;&#9;l-53.6,8.5l7.6-22.1l-14.1,23.1L451.6,187.5z" transform="matrix(1, 0, 0, 1, 0, 0)"/><path fill="#628339" d="M597.5,151l-1.2,13.6c0,0-22.6,18.2-39.4,32.9l-9.7-10.4l6.2,13.4c-5,4.4-9.2,8.3-11.8,11&#10;&#9;&#9;&#9;&#9;&#9;&#9;&#9;c-4.5,4.8-12.3,14.1-20,23.5l-6.2-24l0.9,30.5c-9.9,12.2-18.5,23.2-18.5,23.2s-14.1-42.9,11.4-72.9&#10;&#9;&#9;&#9;&#9;&#9;&#9;&#9;C538.4,157.7,597.5,151,597.5,151z" transform="matrix(1, 0, 0, 1, 0, 0)"/><path fill="#628339" d="M637.1,170.3c13.3,10.5,40.4,49.1,43.9,63.8c3.6,14.7-22.1,58.2-22.1,58.2s-2.7-10.1-6.3-23.3&#10;&#9;&#9;&#9;&#9;&#9;&#9;&#9;l16.1-26.9l-18.7,17.5c-1.3-4.7-2.6-9.7-4-14.5l15-11.2l-16.3,6.5c-4.4-15.7-8.4-29.3-9.4-31c-0.6-0.9-2.7-3.6-5.8-7.1&#10;&#9;&#9;&#9;&#9;&#9;&#9;&#9;l8.4-7.9l-11.6,4.2c-11.6-13.4-30.1-33.9-30.1-33.9l1.2-13.6C597.5,151,623.8,159.8,637.1,170.3z" transform="matrix(1, 0, 0, 1, 0, 0)"/><path fill="#987555" d="M499.9,393.1c1.8-2.4,3.8-5,5.9-7.8l-27.9-18c-3,3.1-5.8,6.1-8.5,8.8L499.9,393.1z" transform="matrix(1, 0, 0, 1, 0, 0)"/><path fill="#987555" d="M508.6,334.4c-2.2,2.5-4.5,4.9-6.8,7.4l27.9,11.2c1.8-2.5,3.6-4.9,5.3-7.4L508.6,334.4z" transform="matrix(1, 0, 0, 1, 0, 0)"/><path fill="#987555" d="M539.9,298c-1.1,1.3-2.2,2.7-3.3,4.1l16.3,17.9c1.4-2.1,2.7-4.1,4-6L539.9,298z" transform="matrix(1, 0, 0, 1, 0, 0)"/><path fill="#987555" d="M573.6,274.5c0.6-2.5,1.2-5.2,1.8-8l-17-5c-0.8,2.4-1.5,4.7-2.2,6.9L573.6,274.5z" transform="matrix(1, 0, 0, 1, 0, 0)"/><path fill="#987555" d="M569.5,223.5c-0.8,2.8-1.6,5.6-2.4,8.4l15.4,1.7c0.5-2.5,1-4.9,1.5-7.4L569.5,223.5z" transform="matrix(1, 0, 0, 1, 0, 0)"/><path fill="#987555" d="M578.8,189.2c-0.7,2.6-1.4,5.2-2.1,7.9l12.8,2.1c0.4-2.2,0.9-4.4,1.3-6.6L578.8,189.2z" transform="matrix(1, 0, 0, 1, 0, 0)"/><path fill="#6FA241" d="M355.8,411c0,0-5.5-17,11.5-23.5S385,395,385,395s3.6-20,17.7-25s26.5,12.9,26.5,12.9s2.1-18.8,17.1-21.2&#10;&#9;&#9;&#9;&#9;c15-2.4,25.5,28.3,25.5,28.3s7.2-9.5,21-10.3c13.8-0.9,17,21.8,17,21.8s17.5-21.5,19.5,7.5c0,0-57.6,9-81.3,9&#10;&#9;&#9;&#9;&#9;S355.8,411,355.8,411z" transform="matrix(1, 0, 0, 1, 0, 0)"/><path fill="#91BC3E" d="M385,395C385,395,385,395,385,395C385,395,385,395,385,395z" transform="matrix(1, 0, 0, 1, 0, 0)"/><path fill="#91BC3E" d="M492.8,379.7c-13.8,0.9-21,10.3-21,10.3s-10.5-30.7-25.5-28.3c-15,2.4-17.1,21.2-17.1,21.2&#10;&#9;&#9;&#9;&#9;&#9;S416.8,365,402.7,370S385,395,385,395s14-14.6,23-15.3s24,10.1,24,10.1s9-19.8,16.8-19.8c7.7,0,25.2,30,25.2,30&#10;&#9;&#9;&#9;&#9;&#9;s8.2-15.7,20-15.2c11.8,0.5,15.8,16.7,15.8,16.7S506.6,378.8,492.8,379.7z" transform="matrix(1, 0, 0, 1, 0, 0)"/><path fill="#FFFFFF" d="M705,423.2c0,0-4,20.3-10.3,25.9C688.3,454.7,632,476,632,476s62.4-13.5,73-26.4&#10;&#9;&#9;&#9;C710.6,442.7,705,423.2,705,423.2z" transform="matrix(1, 0, 0, 1, 0, 0)"/><path fill="#B4E1E0" d="M487.6,536.7c0,0,120.8-21.3,148.1-26C663,506,729,471.3,729,471.3s-60.3,46.7-90.1,54&#10;&#9;&#9;&#9;C609,532.7,487.6,536.7,487.6,536.7z" transform="matrix(1, 0, 0, 1, 0, 0)"/><path fill="#B4E1E0" d="M65.7,444c0,0,18,16,37.3,22.7c19.3,6.7,77.3,9.3,77.3,9.3s-60,6.7-80,0S65.7,444,65.7,444z" transform="matrix(1, 0, 0, 1, 0, 0)"/><path fill="#B4E1E0" d="M240.3,516c0,0,44.1,17.3,60.7,20.7c16.7,3.3,72.1,6,72.1,6s-49.4,6-74.7,4C273,544.7,240.3,516,240.3,516&#10;&#9;&#9;&#9;z" transform="matrix(1, 0, 0, 1, 0, 0)"/>
</svg>